<svg width="56" height="30" viewBox="0 0 56 30" fill="none" xmlns="http://www.w3.org/2000/svg">
<g clip-path="url(#clip0_13_130)">
<rect width="56" height="30" rx="15" fill="#E2E8F0"/>
<g filter="url(#filter0_dii_13_130)">
<rect x="3" y="3" width="24" height="24" rx="12" fill="white"/>
<path d="M14.9999 19.6667C17.5772 19.6667 19.6666 17.5773 19.6666 15C19.6666 12.4227 17.5772 10.3333 14.9999 10.3333C12.4226 10.3333 10.3333 12.4227 10.3333 15C10.3333 17.5773 12.4226 19.6667 14.9999 19.6667Z" fill="#969AA1"/>
<path d="M15.0001 22.3067C14.6334 22.3067 14.3334 22.0333 14.3334 21.6667V21.6133C14.3334 21.2467 14.6334 20.9467 15.0001 20.9467C15.3667 20.9467 15.6667 21.2467 15.6667 21.6133C15.6667 21.98 15.3667 22.3067 15.0001 22.3067ZM19.7601 20.4267C19.5867 20.4267 19.4201 20.36 19.2867 20.2333L19.2001 20.1467C18.9401 19.8867 18.9401 19.4667 19.2001 19.2067C19.4601 18.9467 19.8801 18.9467 20.1401 19.2067L20.2267 19.2933C20.4867 19.5533 20.4867 19.9733 20.2267 20.2333C20.1001 20.36 19.9334 20.4267 19.7601 20.4267ZM10.2401 20.4267C10.0667 20.4267 9.90008 20.36 9.76675 20.2333C9.50675 19.9733 9.50675 19.5533 9.76675 19.2933L9.85342 19.2067C10.1134 18.9467 10.5334 18.9467 10.7934 19.2067C11.0534 19.4667 11.0534 19.8867 10.7934 20.1467L10.7067 20.2333C10.5801 20.36 10.4067 20.4267 10.2401 20.4267ZM21.6667 15.6667H21.6134C21.2467 15.6667 20.9467 15.3667 20.9467 15C20.9467 14.6333 21.2467 14.3333 21.6134 14.3333C21.9801 14.3333 22.3067 14.6333 22.3067 15C22.3067 15.3667 22.0334 15.6667 21.6667 15.6667ZM8.38675 15.6667H8.33341C7.96675 15.6667 7.66675 15.3667 7.66675 15C7.66675 14.6333 7.96675 14.3333 8.33341 14.3333C8.70008 14.3333 9.02675 14.6333 9.02675 15C9.02675 15.3667 8.75341 15.6667 8.38675 15.6667ZM19.6734 10.9933C19.5001 10.9933 19.3334 10.9267 19.2001 10.8C18.9401 10.54 18.9401 10.12 19.2001 9.86L19.2867 9.77333C19.5467 9.51333 19.9667 9.51333 20.2267 9.77333C20.4867 10.0333 20.4867 10.4533 20.2267 10.7133L20.1401 10.8C20.0134 10.9267 19.8467 10.9933 19.6734 10.9933ZM10.3267 10.9933C10.1534 10.9933 9.98675 10.9267 9.85342 10.8L9.76675 10.7067C9.50675 10.4467 9.50675 10.0267 9.76675 9.76667C10.0267 9.50667 10.4467 9.50667 10.7067 9.76667L10.7934 9.85333C11.0534 10.1133 11.0534 10.5333 10.7934 10.7933C10.6667 10.9267 10.4934 10.9933 10.3267 10.9933ZM15.0001 9.02667C14.6334 9.02667 14.3334 8.75333 14.3334 8.38667V8.33333C14.3334 7.96667 14.6334 7.66667 15.0001 7.66667C15.3667 7.66667 15.6667 7.96667 15.6667 8.33333C15.6667 8.7 15.3667 9.02667 15.0001 9.02667Z" fill="#969AA1"/>
</g>
</g>
<defs>
<filter id="filter0_dii_13_130" x="-1" y="1" width="32" height="32" filterUnits="userSpaceOnUse" color-interpolation-filters="sRGB">
<feFlood flood-opacity="0" result="BackgroundImageFix"/>
<feColorMatrix in="SourceAlpha" type="matrix" values="0 0 0 0 0 0 0 0 0 0 0 0 0 0 0 0 0 0 127 0" result="hardAlpha"/>
<feOffset dy="2"/>
<feGaussianBlur stdDeviation="2"/>
<feComposite in2="hardAlpha" operator="out"/>
<feColorMatrix type="matrix" values="0 0 0 0 0 0 0 0 0 0 0 0 0 0 0 0 0 0 0.2 0"/>
<feBlend mode="multiply" in2="BackgroundImageFix" result="effect1_dropShadow_13_130"/>
<feBlend mode="normal" in="SourceGraphic" in2="effect1_dropShadow_13_130" result="shape"/>
<feColorMatrix in="SourceAlpha" type="matrix" values="0 0 0 0 0 0 0 0 0 0 0 0 0 0 0 0 0 0 127 0" result="hardAlpha"/>
<feOffset dy="-1"/>
<feGaussianBlur stdDeviation="0.5"/>
<feComposite in2="hardAlpha" operator="arithmetic" k2="-1" k3="1"/>
<feColorMatrix type="matrix" values="0 0 0 0 0 0 0 0 0 0 0 0 0 0 0 0 0 0 0.1 0"/>
<feBlend mode="multiply" in2="shape" result="effect2_innerShadow_13_130"/>
<feColorMatrix in="SourceAlpha" type="matrix" values="0 0 0 0 0 0 0 0 0 0 0 0 0 0 0 0 0 0 127 0" result="hardAlpha"/>
<feOffset dy="2"/>
<feGaussianBlur stdDeviation="1"/>
<feComposite in2="hardAlpha" operator="arithmetic" k2="-1" k3="1"/>
<feColorMatrix type="matrix" values="0 0 0 0 1 0 0 0 0 1 0 0 0 0 1 0 0 0 1 0"/>
<feBlend mode="normal" in2="effect2_innerShadow_13_130" result="effect3_innerShadow_13_130"/>
</filter>
<clipPath id="clip0_13_130">
<rect width="56" height="30" rx="15" fill="white"/>
</clipPath>
</defs>
</svg>
